<?xml version="1.0" encoding="UTF-8" standalone="no"?>
<svg
   xmlns:dc="http://purl.org/dc/elements/1.1/"
   xmlns:cc="http://creativecommons.org/ns#"
   xmlns:rdf="http://www.w3.org/1999/02/22-rdf-syntax-ns#"
   xmlns:svg="http://www.w3.org/2000/svg"
   xmlns="http://www.w3.org/2000/svg"
   xmlns:xlink="http://www.w3.org/1999/xlink"
   xmlns:sodipodi="http://sodipodi.sourceforge.net/DTD/sodipodi-0.dtd"
   xmlns:inkscape="http://www.inkscape.org/namespaces/inkscape"
   inkscape:export-ydpi="96"
   inkscape:export-xdpi="96"
   inkscape:export-filename="/home/davisr/hdd/Developer/remarkable-connection-utility/rcu/icon/128x128/rcu-icon-128x128.png"
   width="128"
   height="128"
   viewBox="0 0 128 128"
   version="1.1"
   id="svg8"
   inkscape:version="1.0 (4035a4fb49, 2020-05-01)"
   sodipodi:docname="rcu-icon-128x128.svg">
  <title
     id="title833">RCU Icon</title>
  <defs
     id="defs2">
    <linearGradient
       inkscape:collect="always"
       id="linearGradient954">
      <stop
         style="stop-color:#ffffff;stop-opacity:1"
         offset="0"
         id="stop950" />
      <stop
         style="stop-color:#e2e2e2;stop-opacity:1"
         offset="1"
         id="stop952" />
    </linearGradient>
    <linearGradient
       inkscape:collect="always"
       id="linearGradient946">
      <stop
         style="stop-color:#fefefe;stop-opacity:1;"
         offset="0"
         id="stop942" />
      <stop
         style="stop-color:#a7a7a7;stop-opacity:1"
         offset="1"
         id="stop944" />
    </linearGradient>
    <linearGradient
       inkscape:collect="always"
       id="linearGradient1688">
      <stop
         style="stop-color:#cbcbcb;stop-opacity:1"
         offset="0"
         id="stop1684" />
      <stop
         style="stop-color:#dedede;stop-opacity:1"
         offset="1"
         id="stop1686" />
    </linearGradient>
    <linearGradient
       inkscape:collect="always"
       xlink:href="#linearGradient1688"
       id="linearGradient1690"
       x1="36.329582"
       y1="64.386208"
       x2="36.329582"
       y2="59.351116"
       gradientUnits="userSpaceOnUse"
       gradientTransform="matrix(2,0,0,2,13,0)" />
    <linearGradient
       inkscape:collect="always"
       xlink:href="#linearGradient946"
       id="linearGradient948"
       x1="83.739754"
       y1="78.939301"
       x2="86.045792"
       y2="81.361183"
       gradientUnits="userSpaceOnUse"
       gradientTransform="translate(0.01657282,0.16020388)" />
    <linearGradient
       inkscape:collect="always"
       xlink:href="#linearGradient954"
       id="linearGradient956"
       x1="-48.233845"
       y1="113.03487"
       x2="-48.383236"
       y2="117.76867"
       gradientUnits="userSpaceOnUse" />
  </defs>
  <sodipodi:namedview
     showborder="true"
     id="base"
     pagecolor="#ffffff"
     bordercolor="#666666"
     borderopacity="1.0"
     inkscape:pageopacity="0.0"
     inkscape:pageshadow="2"
     inkscape:zoom="1"
     inkscape:cx="108.46515"
     inkscape:cy="15.236197"
     inkscape:document-units="px"
     inkscape:current-layer="layer1"
     inkscape:document-rotation="0"
     showgrid="false"
     units="px"
     inkscape:pagecheckerboard="true"
     borderlayer="false"
     inkscape:showpageshadow="false"
     inkscape:window-width="1920"
     inkscape:window-height="1007"
     inkscape:window-x="0"
     inkscape:window-y="24"
     inkscape:window-maximized="1">
    <inkscape:grid
       empspacing="4"
       spacingy="0.5"
       spacingx="0.5"
       type="xygrid"
       id="grid853" />
  </sodipodi:namedview>
  <metadata
     id="metadata5">
    <rdf:RDF>
      <cc:Work
         rdf:about="">
        <dc:format>image/svg+xml</dc:format>
        <dc:type
           rdf:resource="http://purl.org/dc/dcmitype/StillImage" />
        <dc:title>RCU Icon</dc:title>
        <dc:creator>
          <cc:Agent>
            <dc:title>Davis Remmel</dc:title>
          </cc:Agent>
        </dc:creator>
        <dc:subject>
          <rdf:Bag>
            <rdf:li>remarkable</rdf:li>
            <rdf:li>connection</rdf:li>
            <rdf:li>utility</rdf:li>
            <rdf:li>rcu</rdf:li>
            <rdf:li>tablet</rdf:li>
          </rdf:Bag>
        </dc:subject>
        <cc:license
           rdf:resource="http://creativecommons.org/licenses/by-sa/4.0/" />
      </cc:Work>
      <cc:License
         rdf:about="http://creativecommons.org/licenses/by-sa/4.0/">
        <cc:permits
           rdf:resource="http://creativecommons.org/ns#Reproduction" />
        <cc:permits
           rdf:resource="http://creativecommons.org/ns#Distribution" />
        <cc:requires
           rdf:resource="http://creativecommons.org/ns#Notice" />
        <cc:requires
           rdf:resource="http://creativecommons.org/ns#Attribution" />
        <cc:permits
           rdf:resource="http://creativecommons.org/ns#DerivativeWorks" />
        <cc:requires
           rdf:resource="http://creativecommons.org/ns#ShareAlike" />
      </cc:License>
    </rdf:RDF>
  </metadata>
  <g
     inkscape:label="Layer 1"
     inkscape:groupmode="layer"
     id="layer1">
    <rect
       ry="9"
       y="1.7238755"
       x="-105.5736"
       height="62"
       width="62"
       id="rect1661"
       style="fill:#dedede;fill-opacity:1;stroke:#000000;stroke-width:1;stroke-linecap:round;stroke-linejoin:miter;stroke-miterlimit:4;stroke-dasharray:none;paint-order:normal" />
    <path
       d="m -96.5736,1.7238755 c -4.986,0 -9,4.014 -9,9.0000005 v 44 c 0,4.986 4.014,9 9,9 z"
       style="fill:#4a4a4a;fill-opacity:1;stroke:#000000;stroke-width:1;stroke-linecap:round;stroke-linejoin:miter;stroke-miterlimit:4;stroke-dasharray:none;paint-order:normal"
       id="path1663" />
    <rect
       ry="5"
       y="5.7238755"
       x="-92.573601"
       height="45"
       width="45"
       id="rect1665"
       style="fill:#ced3cc;fill-opacity:1;stroke:#000000;stroke-width:1;stroke-linecap:round;stroke-linejoin:miter;stroke-miterlimit:4;stroke-dasharray:none;paint-order:normal" />
    <g
       transform="translate(-109.5736,-1.5261244)"
       id="g1673">
      <circle
         r="2.7230451"
         cx="29.982931"
         cy="30.682404"
         id="circle1667"
         style="fill:#797979;fill-opacity:1;stroke:none;stroke-width:1.71552;stroke-linecap:round;stroke-linejoin:miter;stroke-miterlimit:4;stroke-dasharray:none;stroke-opacity:1;paint-order:normal" />
      <path
         sodipodi:nodetypes="cc"
         id="path1669"
         d="m 34.89434,33.390044 c 4.067937,2.171068 10.337557,2.031896 12.564754,-3.141189"
         style="fill:none;stroke:#737373;stroke-width:3.14119px;stroke-linecap:butt;stroke-linejoin:miter;stroke-opacity:1" />
      <circle
         style="fill:#797979;fill-opacity:1;stroke:none;stroke-width:1.71552;stroke-linecap:round;stroke-linejoin:miter;stroke-miterlimit:4;stroke-dasharray:none;stroke-opacity:1;paint-order:normal"
         id="circle1671"
         cx="49.790913"
         cy="25.794394"
         r="2.7230451" />
    </g>
    <path
       d="m -37.000008,0 c -1.2465,0 -2.25,1.0035 -2.25,2.25 v 11.5 c 0,1.2465 1.0035,2.25 2.25,2.25 h 0.25 V 0 Z"
       style="fill:#4a4a4a;fill-opacity:1;stroke:#8c8c8c;stroke-width:0;stroke-linecap:round;stroke-opacity:1;paint-order:stroke fill markers"
       id="rect862" />
    <rect
       style="fill:url(#linearGradient1690);fill-opacity:1;stroke:#adadad;stroke-width:1;stroke-linecap:round;stroke-linejoin:miter;stroke-miterlimit:4;stroke-dasharray:none;stroke-opacity:1;paint-order:normal"
       id="rect1568"
       width="101"
       height="127"
       x="13.5"
       y="0.5"
       ry="8.75" />
    <rect
       style="fill:#ced3cc;fill-opacity:1;stroke:#aeaeae;stroke-width:2;stroke-linecap:round;stroke-linejoin:miter;stroke-miterlimit:4;stroke-dasharray:none;stroke-opacity:1;paint-order:stroke fill markers"
       id="rect1587"
       width="75"
       height="96"
       x="32"
       y="8"
       ry="3" />
    <circle
       style="fill:#8f8f8f;fill-opacity:1;stroke:none;stroke-width:2.21879;stroke-linecap:round;stroke-linejoin:miter;stroke-miterlimit:4;stroke-dasharray:none;stroke-opacity:1;paint-order:normal"
       id="circle1009"
       cy="47.234905"
       cx="61.330059"
       r="3.5218823" />
    <path
       style="fill:none;stroke:#909090;stroke-width:4.06272px;stroke-linecap:butt;stroke-linejoin:miter;stroke-opacity:1"
       d="M 67.749228,52.062693 C 73.010542,54.870668 81.119429,54.690669 84,48"
       id="path1011"
       sodipodi:nodetypes="cc" />
    <circle
       r="3.5218823"
       cy="40.912941"
       cx="86.948936"
       id="circle1013"
       style="fill:#8f8f8f;fill-opacity:1;stroke:none;stroke-width:2.21879;stroke-linecap:round;stroke-linejoin:miter;stroke-miterlimit:4;stroke-dasharray:none;stroke-opacity:1;paint-order:normal" />
    <path
       id="rect858"
       style="fill:#4a4a4a;fill-opacity:1;stroke:#4a4a4a;stroke-width:1;stroke-linecap:round;stroke-miterlimit:4;stroke-dasharray:none;stroke-opacity:1"
       d="m 22.25,0.5 c -4.8475,0 -8.75,3.9025 -8.75,8.75 v 109.5 c 0,4.8475 3.9025,8.75 8.75,8.75 H 24 V 0.5 Z" />
    <rect
       style="fill:#4a4a4a;fill-opacity:1;stroke:#4a4a4a;stroke-width:1;stroke-linecap:round;stroke-miterlimit:4;stroke-dasharray:none;stroke-opacity:1"
       id="rect891"
       width="124.06189"
       height="4.9073334"
       x="138.5"
       y="44.5"
       ry="2.4536667" />
    <path
       id="rect897"
       style="fill:#4a4a4a;fill-opacity:1;stroke:#4a4a4a;stroke-width:1;stroke-linecap:round;stroke-miterlimit:4;stroke-dasharray:none;stroke-opacity:1"
       d="M 139 54.5 C 138.723 54.5 138.5 54.723 138.5 55 L 138.5 56.953125 L 138.5 57.046875 L 138.5 59 C 138.5 59.277 138.723 59.5 139 59.5 L 140.95312 59.5 L 163.5 59.5 L 252.82422 59.5 C 255.74343 58.924575 258.63166 58.150188 261.48828 57.167969 C 261.49029 57.127017 261.5 57.088344 261.5 57.046875 L 261.5 56.953125 C 261.5 56.904303 261.48911 56.858647 261.48633 56.810547 C 258.83922 55.825639 255.9789 55.072576 252.95117 54.5 L 163.5 54.5 L 140.95312 54.5 L 139 54.5 z " />
    <path
       sodipodi:nodetypes="cccccccc"
       id="path903"
       d="m 290.96303,57 c -3.62609,-1.405065 -7.6673,-2.360427 -12,-3 l 7.5,-2 7.5,0.5 1,8.5 -13.5,4.5 -2.5,-5.5 c 4.05758,-0.625755 8.06026,-1.608294 12,-3 z"
       style="fill:#b6b6b6;fill-opacity:1;stroke:none;stroke-width:1px;stroke-linecap:butt;stroke-linejoin:miter;stroke-opacity:1" />
    <rect
       style="fill:#b6b6b6;fill-opacity:1;stroke:none;stroke-width:1.07238;stroke-linecap:round;stroke-miterlimit:4;stroke-dasharray:none;stroke-opacity:1"
       id="rect924"
       width="23"
       height="3"
       x="139"
       y="53.5"
       ry="1.5" />
    <g
       id="g932">
      <path
         id="path926"
         style="fill:#fefefe;fill-opacity:1;stroke:#ebebeb;stroke-width:1;stroke-linecap:round;stroke-miterlimit:4;stroke-dasharray:none;stroke-opacity:1;paint-order:stroke fill markers"
         d="m 139,70.5 c -0.277,0 -0.5,0.223 -0.5,0.5 v 1.953125 0.09375 V 75 c 0,0.277 0.223,0.5 0.5,0.5 h 1.95312 22.54688 89.32422 c 2.91921,-0.575425 5.80744,-1.349812 8.66406,-2.332031 0.002,-0.04095 0.0117,-0.07962 0.0117,-0.121094 v -0.09375 c 0,-0.04882 -0.0109,-0.09448 -0.0137,-0.142578 C 258.83922,71.825639 255.9789,71.072576 252.95117,70.5 H 163.5 140.95312 Z" />
      <rect
         style="fill:#ffffff;fill-opacity:1;stroke:#ebebeb;stroke-width:1;stroke-linecap:round;stroke-miterlimit:4;stroke-dasharray:none;stroke-opacity:1;paint-order:stroke fill markers"
         id="rect928"
         width="23"
         height="3"
         x="139"
         y="69.5"
         ry="1.5" />
    </g>
    <g
       id="g980"
       transform="translate(294.42487,-12.365662)">
      <path
         d="m 32.423643,123.68959 c -0.203493,0.18794 -0.216018,0.50306 -0.02808,0.70655 l 1.32513,1.43483 0.06361,0.0689 1.325129,1.43483 c 0.187936,0.20349 0.503057,0.21601 0.706549,0.0281 l 1.434824,-1.32513 16.563644,-15.2973 65.620371,-60.60349 c 1.75414,-2.403312 3.35052,-4.931768 4.78268,-7.591458 -0.0263,-0.03144 -0.0454,-0.06643 -0.0736,-0.0969 l -0.0636,-0.06887 c -0.0331,-0.03587 -0.0721,-0.06201 -0.10679,-0.09545 -2.61284,1.072398 -5.22505,2.459805 -7.83779,4.093387 L 50.42211,107.06716 33.858466,122.36447 Z"
         style="fill:url(#linearGradient948);fill-opacity:1;stroke:#ebebeb;stroke-width:1;stroke-linecap:round;stroke-miterlimit:4;stroke-dasharray:none;stroke-opacity:1;paint-order:stroke fill markers"
         id="path934" />
      <rect
         transform="rotate(-42.723928)"
         ry="1.5"
         y="111.73567"
         x="-60.003311"
         height="3"
         width="23"
         id="rect936"
         style="fill:url(#linearGradient956);fill-opacity:1;stroke:#9d9d9d;stroke-width:1;stroke-linecap:round;stroke-miterlimit:4;stroke-dasharray:none;stroke-opacity:1;paint-order:stroke fill markers" />
    </g>
    <path
       sodipodi:nodetypes="ssccssccccssccccs"
       id="path982"
       style="fill:#fefefe;fill-opacity:1;stroke:#ebebeb;stroke-width:1.98836;stroke-linecap:round;stroke-miterlimit:4;stroke-dasharray:none;stroke-opacity:1;paint-order:stroke fill markers"
       d="m 140.04835,90.165602 c -0.27777,0 -0.5014,0.356892 -0.5014,0.800205 v 3.125801 0.150041 3.125795 c 0,0.443318 0.22363,0.800211 0.5014,0.800211 h 1.95857 22.6098 80.0009 c 2.92735,-0.920918 18.26081,-3.732207 18.26081,-3.732207 0.002,-0.06554 0.0117,-0.127423 0.0117,-0.193799 v -0.150041 c 0,-0.07813 -0.0109,-0.151206 -0.0137,-0.228183 0,0 -15.09533,-2.781466 -18.13151,-3.697823 h -80.1282 -22.6098 z" />
    <rect
       style="fill:#ffffff;fill-opacity:1;stroke:#ebebeb;stroke-width:2.33159;stroke-linecap:round;stroke-miterlimit:4;stroke-dasharray:none;stroke-opacity:1;paint-order:stroke fill markers"
       id="rect984"
       width="29.936525"
       height="5.2172041"
       x="140.21857"
       y="87.921082"
       ry="2.5511682" />
    <g
       id="g1004"
       transform="rotate(-39.488666,80.400825,279.98219)"
       style="stroke:#5a5a5a;stroke-opacity:1;stroke-width:1;stroke-miterlimit:4;stroke-dasharray:none">
      <path
         sodipodi:nodetypes="ssccssccccssccccs"
         id="path998"
         style="fill:#fefefe;fill-opacity:1;stroke:#aeaeae;stroke-width:1;stroke-linecap:round;stroke-miterlimit:4;stroke-dasharray:none;stroke-opacity:1;paint-order:stroke fill markers"
         d="m 136.32404,119.76193 c -0.27777,0 -0.5014,0.35689 -0.5014,0.80021 v 3.1258 0.15004 3.12579 c 0,0.44332 0.22363,0.80021 0.5014,0.80021 h 1.95857 l 22.6098,0 80.0009,0 c 3.38208,0.5409 18.55452,-2.78802 18.26081,-3.7322 0.002,-0.0655 0.0117,-0.12743 0.0117,-0.1938 v -0.15004 c 0,-0.0781 -0.0109,-0.15121 -0.0137,-0.22819 -0.0817,-1.05415 -15.22393,-4.44127 -18.13151,-3.69782 l -80.1282,0 h -22.6098 z" />
      <rect
         style="fill:#ffffff;fill-opacity:1;stroke:#c0c0c0;stroke-width:1;stroke-linecap:round;stroke-miterlimit:4;stroke-dasharray:none;stroke-opacity:1;paint-order:stroke fill markers"
         id="rect1000"
         width="29.936525"
         height="5.2172041"
         x="136.49426"
         y="117.51741"
         ry="2.5511682" />
    </g>
    <path
       style="fill:none;stroke:#909090;stroke-width:2;stroke-linecap:round;stroke-linejoin:miter;stroke-miterlimit:4;stroke-dasharray:none;stroke-opacity:1"
       d="m 92.68785,82.472323 c 7.64144,10.519115 6.8251,7.465087 11.13759,-23.284818"
       id="path961-3"
       sodipodi:nodetypes="cc" />
    <path
       sodipodi:nodetypes="cc"
       id="path961"
       d="M 36.931722,92.480022 C 49.08276,112.78315 34.104745,98.690825 63.473941,97.13417"
       style="fill:none;stroke:#909090;stroke-width:2;stroke-linecap:round;stroke-linejoin:miter;stroke-miterlimit:4;stroke-dasharray:none;stroke-opacity:1" />
    <path
       style="fill:none;stroke:#939393;stroke-width:0.5;stroke-linecap:butt;stroke-linejoin:miter;stroke-opacity:1;stroke-miterlimit:4;stroke-dasharray:none"
       d="m 82.010216,70.889336 c 0.782569,2.485478 3.143232,4.339718 5.557617,6.17247"
       id="path1006"
       sodipodi:nodetypes="cc" />
  </g>
</svg>
